<?xml version="1.0" encoding="UTF-8"?>
<svg width="31px" height="59px" viewBox="0 0 31 59" version="1.1" xmlns="http://www.w3.org/2000/svg" xmlns:xlink="http://www.w3.org/1999/xlink">
    <!-- Generator: Sketch 47.1 (45422) - http://www.bohemiancoding.com/sketch -->
    <title>Group_car_blue</title>
    <desc>Created with Sketch.</desc>
    <defs>
        <filter x="-33.3%" y="-12.4%" width="181.5%" height="142.9%" filterUnits="objectBoundingBox" id="filter-1">
            <feOffset dx="2" dy="2" in="SourceAlpha" result="shadowOffsetOuter1"></feOffset>
            <feGaussianBlur stdDeviation="2" in="shadowOffsetOuter1" result="shadowBlurOuter1"></feGaussianBlur>
            <feColorMatrix values="0 0 0 0 0   0 0 0 0 0   0 0 0 0 0  0 0 0 0.5 0" type="matrix" in="shadowBlurOuter1" result="shadowMatrixOuter1"></feColorMatrix>
            <feMerge>
                <feMergeNode in="shadowMatrixOuter1"></feMergeNode>
                <feMergeNode in="SourceGraphic"></feMergeNode>
            </feMerge>
        </filter>
        <linearGradient x1="50%" y1="35.8636445%" x2="50%" y2="67.4940409%" id="linearGradient-2">
            <stop stop-color="#80C3F3" offset="0%"></stop>
            <stop stop-color="#4A90E2" offset="100%"></stop>
        </linearGradient>
        <path d="M22.4795998,44.4845318 C21.9710517,44.8277443 21.4477171,45.1376621 20.9125006,45.4148402 C20.739816,45.5039034 20.6595467,45.2866557 20.7968494,45.0988184 C21.8876139,43.6030556 23.1552876,42.2576738 24.3529897,40.8867661 C24.4689048,40.7549747 24.57241,40.7999225 24.5391405,40.9722224 C24.2904113,42.2618356 23.5083139,43.7831243 22.4795998,44.4845318" id="path-3"></path>
        <filter x="-261.9%" y="-173.0%" width="623.8%" height="532.4%" filterUnits="objectBoundingBox" id="filter-4">
            <feOffset dx="0" dy="2" in="SourceAlpha" result="shadowOffsetOuter1"></feOffset>
            <feGaussianBlur stdDeviation="3" in="shadowOffsetOuter1" result="shadowBlurOuter1"></feGaussianBlur>
            <feColorMatrix values="0 0 0 0 1   0 0 0 0 0   0 0 0 0 0  0 0 0 1 0" type="matrix" in="shadowBlurOuter1"></feColorMatrix>
        </filter>
        <radialGradient cx="50%" cy="64.7289931%" fx="50%" fy="64.7289931%" r="95.938312%" gradientTransform="translate(0.500000,0.647290),scale(0.646322,1.000000),rotate(-90.000000),scale(1.000000,2.462966),translate(-0.500000,-0.647290)" id="radialGradient-5">
            <stop stop-color="#4C575F" offset="0%"></stop>
            <stop stop-color="#4A90E2" offset="100%"></stop>
        </radialGradient>
        <linearGradient x1="50%" y1="0%" x2="50%" y2="100%" id="linearGradient-6">
            <stop stop-color="#F9DE4C" offset="0%"></stop>
            <stop stop-color="#F16725" offset="100%"></stop>
        </linearGradient>
        <polygon id="path-7" points="0.0970909091 0.0108827404 13.1810812 0.0108827404 13.1810812 4.75521344 0.0970909091 4.75521344 0.0970909091 0.0108827404"></polygon>
        <path d="M13.0641818,2.66899209 C13.1950909,3.34481028 13.2087273,4.04647497 13.1413636,4.75521344 C12.7960909,4.69780698 12.4082727,4.54136759 12.0417273,4.27065942 C10.7740909,3.33447167 10.1871818,2.03425626 10.5250909,1.70831818 C10.8744545,1.36741634 12.0962727,1.89604545 13.0641818,2.66899209 Z" id="path-9"></path>
        <filter x="-581.8%" y="-571.0%" width="1263.6%" height="1115.1%" filterUnits="objectBoundingBox" id="filter-10">
            <feOffset dx="0" dy="-2" in="SourceAlpha" result="shadowOffsetOuter1"></feOffset>
            <feGaussianBlur stdDeviation="5" in="shadowOffsetOuter1" result="shadowBlurOuter1"></feGaussianBlur>
            <feColorMatrix values="0 0 0 0 0.970775187   0 0 0 0 0.907238424   0 0 0 0 0.109462149  0 0 0 1 0" type="matrix" in="shadowBlurOuter1"></feColorMatrix>
        </filter>
        <radialGradient cx="50%" cy="0%" fx="50%" fy="0%" r="100%" gradientTransform="translate(0.500000,0.000000),scale(0.798068,1.000000),rotate(90.000000),translate(-0.500000,-0.000000)" id="radialGradient-11">
            <stop stop-color="#FFFFFF" offset="0%"></stop>
            <stop stop-color="#000000" offset="100%"></stop>
        </radialGradient>
        <path d="M0.0545454545,0.194828722 C0.057,0.19401054 0.0594545455,0.193192358 0.0619090909,0.192374177 C0.0594545455,0.193192358 0.0574090909,0.19401054 0.0545454545,0.194828722 Z M0.0819545455,0.185419631 C0.0835909091,0.184601449 0.0852272727,0.184192358 0.0868636364,0.183374177 C0.0856363636,0.184192358 0.0831818182,0.18501054 0.0819545455,0.185419631 Z" id="path-12"></path>
        <path d="M5.88961257,45.435441 C5.86743347,45.435441 5.84234998,45.4290596 5.81489015,45.4149094 C5.27942353,45.1377325 4.7561026,44.827816 4.24756774,44.4846049 C3.21914442,43.7832003 2.4368034,42.261918 2.18808074,40.97231 C2.16801394,40.8679872 2.19811413,40.8102767 2.25065746,40.8102767 C2.2847182,40.8102767 2.32854831,40.8349701 2.37422668,40.8868541 C3.57189758,42.2577561 4.83953823,43.6031324 5.93053827,45.0988889 C6.04592235,45.2567604 6.00737298,45.4357185 5.88961257,45.435441" id="path-14"></path>
        <filter x="-261.9%" y="-173.0%" width="623.8%" height="532.4%" filterUnits="objectBoundingBox" id="filter-15">
            <feOffset dx="0" dy="2" in="SourceAlpha" result="shadowOffsetOuter1"></feOffset>
            <feGaussianBlur stdDeviation="3" in="shadowOffsetOuter1" result="shadowBlurOuter1"></feGaussianBlur>
            <feColorMatrix values="0 0 0 0 1   0 0 0 0 0   0 0 0 0 0  0 0 0 1 0" type="matrix" in="shadowBlurOuter1"></feColorMatrix>
        </filter>
        <polygon id="path-16" points="0.224725747 0.0108827404 8.41690909 0.0108827404 8.41690909 4.75521344 0.224725747 4.75521344 0.224725747 0.0108827404"></polygon>
        <path d="M0.264272727,4.75521344 L0.264272727,4.75521344 C0.238636364,4.48396113 0.224727273,4.21352503 0.224727273,3.94553755 C0.224454545,3.51294862 0.260727273,3.08607312 0.341454545,2.66899209 C1.104,2.06010277 2.02390909,1.6027556 2.55109091,1.6027556 C2.69290909,1.6027556 2.80663636,1.63594796 2.88054545,1.70831818 C3.21845455,2.03425626 2.63154545,3.33447167 1.36390909,4.27065942 C0.997363636,4.54136759 0.609545455,4.69780698 0.264272727,4.75521344" id="path-18"></path>
        <filter x="-654.6%" y="-666.1%" width="1336.4%" height="1178.5%" filterUnits="objectBoundingBox" id="filter-19">
            <feOffset dx="-1" dy="-4" in="SourceAlpha" result="shadowOffsetOuter1"></feOffset>
            <feGaussianBlur stdDeviation="5" in="shadowOffsetOuter1" result="shadowBlurOuter1"></feGaussianBlur>
            <feColorMatrix values="0 0 0 0 0.970775187   0 0 0 0 0.907238424   0 0 0 0 0.109462149  0 0 0 1 0" type="matrix" in="shadowBlurOuter1"></feColorMatrix>
        </filter>
    </defs>
    <g id="Page-3" stroke="none" stroke-width="1" fill="none" fill-rule="evenodd">
        <g id="car_blue" transform="translate(0.000000, -21.000000)">
            <g id="Group_car_blue" filter="url(#filter-1)" transform="translate(2.000000, 24.000000)">
                <path d="M21.987051,41.8637113 C16.9881646,46.343313 10.2845674,46.343313 5.28540851,41.8637113 C5.03066909,41.6451416 4.75386134,41.6502559 4.665588,41.8849761 C4.48114032,42.3772962 4.29805488,42.8618103 4.11714902,43.3385183 C4.04849198,43.5196727 4.11796637,43.8063435 4.28579469,44.0440246 C4.57459018,44.4512856 4.90425295,44.8109027 5.26143303,45.0779238 C10.3673918,48.9230812 16.9053402,48.9230812 22.0112989,45.0779238 C22.368479,44.8106335 22.6981418,44.4512856 22.9866648,44.0437554 C23.1547656,43.8063435 23.22424,43.5196727 23.1555829,43.3385183 C22.9744046,42.8618103 22.7915916,42.3772962 22.6068715,41.8849761 C22.5188706,41.6502559 22.2420629,41.6451416 21.987051,41.8637113" id="Fill-53" fill="#171F29"></path>
                <path d="M13.5,4.08102767 C14.3626025,2.70461564 15.2716934,1.7977206 16.2272727,1.36034256 C18.3254609,0.399981239 21.7815269,-1.11022302e-15 23.5909091,-1.11022302e-15" id="Path-2" stroke="#3C1E35" stroke-width="2" transform="translate(18.545455, 2.040514) scale(-1, 1) translate(-18.545455, -2.040514) "></path>
                <path d="M3.68181818,4.08102767 C4.54442064,2.70461564 5.45351155,1.7977206 6.40909091,1.36034256 C8.50727909,0.399981239 11.9633451,-1.33226763e-15 13.7727273,-1.33226763e-15" id="Path-2" stroke="#3C1E35" stroke-width="2"></path>
                <g id="Group-44" transform="translate(1.909091, 0.272069)" fill="url(#linearGradient-2)">
                    <path d="M2.48563636,44.2383399 C1.089,43.2866443 0.116727273,41.0439835 0.130363636,39.5682839 C0.241363636,29.0629025 0.362181818,17.6297675 0.473181818,7.12438603 C0.492272727,4.87111462 2.18509091,2.09411133 4.40154545,1.28525165 C9.19936364,-0.418713439 14.2971818,-0.418713439 19.095,1.28525165 C21.3117273,2.09411133 23.0042727,4.87138669 23.0233636,7.12438603 C23.1346364,17.6297675 23.2554545,29.0629025 23.3661818,39.5682839 C23.3798182,41.0439835 22.4078182,43.2866443 21.0109091,44.2383399 C15.4442727,47.9648623 8.05227273,47.9648623 2.48563636,44.2383399 Z" id="Fill-43"></path>
                </g>
                <path d="M4.24752876,44.4845459 C4.75606047,44.8277597 5.27937814,45.1376787 5.81484142,45.4148579 C5.98725638,45.5039214 6.0677871,45.2863955 5.93048882,45.0988348 C4.83949557,43.6030663 3.57186281,42.2576794 2.37419936,40.8867664 C2.25828793,40.7549745 2.15505019,40.7999224 2.18805458,40.972223 C2.43677569,42.2618412 3.21911185,43.7831357 4.24752876,44.4845459" id="Fill-45" fill="#7D1E35"></path>
                <g id="Fill-46">
                    <use fill="black" fill-opacity="1" filter="url(#filter-4)" xlink:href="#path-3"></use>
                    <use fill="#FF0000" fill-rule="evenodd" xlink:href="#path-3"></use>
                </g>
                <path d="M21.3437078,7.21367457 C21.3054024,7.02183825 21.192128,6.86493087 21.0334343,6.78170174 C20.4796482,6.49462947 19.0960036,5.51170711 18.1783165,2.69528797 C18.1140182,2.49772112 17.9785814,2.34245104 17.8037447,2.27368468 C17.2598085,2.06083642 15.9081763,1.64550942 13.5529435,1.63322971 L13.4497926,1.63241107 C11.0942862,1.64605519 9.74265396,2.06192795 9.19899137,2.27532198 C9.02415473,2.34408834 8.8887179,2.49935842 8.82441961,2.69692527 C7.90727969,5.51607322 6.52308791,6.5019973 5.96902815,6.78988822 C5.81033448,6.87366311 5.69706004,7.03084337 5.65875468,7.22267968 C5.04012301,9.4723221 4.42340661,11.6643863 3.81818182,13.7805893 C6.91216099,14.2079231 10.1894587,14.2504927 13.4549912,13.9683323 C13.4870035,13.9656035 13.5190159,13.9653306 13.5510282,13.9680595 C16.8165607,14.2431249 20.0922168,14.1931874 23.1818182,13.75794 C22.5779614,11.6469219 21.9617923,9.45949663 21.3437078,7.21367457 Z" id="Fill-47" stroke="#979797" fill="url(#radialGradient-5)" opacity="0.226788949"></path>
                <path d="M23.6446517,31.8750979 C23.4279437,31.9903748 23.2090044,32.1016304 22.9878339,32.2088648 C22.7920437,32.3034991 22.6330687,32.5520147 22.6364155,32.7664833 C22.6520341,33.77395 22.6676527,34.7819527 22.6829924,35.7896874 C22.6846658,35.8953133 22.7262225,35.9754709 22.7979007,36.0103221 C23.1328638,36.1730502 23.4622488,36.3207655 23.7849402,36.4526637 C23.8599652,36.4834936 23.9804515,36.350523 23.9826828,36.2355142 C24.0047161,35.1403835 24.0044372,33.4715491 23.9890975,32.0630261 C23.9868663,31.8557957 23.8343061,31.7742976 23.6446517,31.8750979" id="Fill-49" fill="#171F29"></path>
                <path d="M3.08281688,31.8749258 C3.29926383,31.99047 3.51822112,32.1017249 3.73940982,32.2089585 C3.93521621,32.3035921 4.09420431,32.5518379 4.09085719,32.7665732 C4.07523731,33.7743011 4.05961743,34.7820289 4.04427647,35.7894887 C4.04260291,35.8953819 4.00076394,35.975539 3.92935876,36.0103899 C3.59436805,36.1731169 3.2652348,36.3208312 2.94223793,36.4527286 C2.8672067,36.4832901 2.74671046,36.3505885 2.74447905,36.2355805 C2.72244386,35.1401892 2.72300171,33.4716342 2.73806374,32.0631208 C2.74029515,31.8558918 2.89314687,31.7743943 3.08281688,31.8749258" id="Fill-50" fill="#171F29"></path>
                <path d="M5.67964742,20.9363781 C10.6969242,19.6680043 16.5760761,19.6680043 21.5933529,20.9363781 C21.9845683,21.0294623 22.3959861,20.6085597 22.5327613,20.0006792 C22.8262412,18.6948019 23.118356,17.4007962 23.4096518,16.1216299 C23.481452,15.805953 23.4667097,15.4800233 23.3684281,15.219927 C22.7396988,13.5592504 21.6725242,12.1079458 20.4156114,11.6152739 C16.0377112,9.9130466 11.235016,9.9130466 6.85711584,11.6152739 C5.60047612,12.1079458 4.53302851,13.5592504 3.90429914,15.219927 C3.80601752,15.4800233 3.79127528,15.805953 3.86307546,16.1216299 C4.15464427,17.4007962 4.44648608,18.6948019 4.74023893,20.0006792 C4.87674118,20.6085597 5.28815897,21.0294623 5.67964742,20.9363781" id="Fill-51" fill="#171F29"></path>
                <path d="M22.7903458,30.974771 C23.003622,30.8449984 23.2148548,30.7111788 23.4235335,30.5733122 C23.5984966,30.4575691 23.7300382,30.201801 23.7272286,29.9921684 C23.7057732,28.4956015 23.5770412,19.4811264 23.5336197,18.2867328 C23.5308101,18.2030956 23.4340057,18.2119989 23.4033552,18.2986039 C23.227115,18.7979991 22.8807647,19.7827601 22.6330067,20.4874712 C22.4491039,21.0106086 22.3566416,21.5504735 22.3640488,22.0638982 C22.4049161,24.9742041 22.4457834,27.8845101 22.4866507,30.794816 C22.4894603,30.9885306 22.6296863,31.0727075 22.7903458,30.974771" id="Fill-52" fill="#171F29"></path>
                <path d="M21.7143237,36.8887442 C16.7154373,41.3683459 10.0118401,41.3683459 5.01268124,36.8887442 C4.75794182,36.6701746 4.48113407,36.6752889 4.39286073,36.910009 C4.20841305,37.4023291 4.0253276,37.8868432 3.84442175,38.3635512 C3.77576471,38.5447056 3.8452391,38.8313765 4.01306742,39.0690575 C4.30186291,39.4763185 4.63152568,39.8359356 4.98870576,40.1029567 C10.0946645,43.9481141 16.6326129,43.9481141 21.7385716,40.1029567 C22.0957517,39.8356664 22.4254145,39.4763185 22.7139375,39.0687883 C22.8820383,38.8313765 22.9515127,38.5447056 22.8828557,38.3635512 C22.7016774,37.8868432 22.5188644,37.4023291 22.3341442,36.910009 C22.2461433,36.6752889 21.9693356,36.6701746 21.7143237,36.8887442" id="Fill-53" fill="#171F29"></path>
                <path d="M3.93669004,30.9747706 C3.72366505,30.8449969 3.51242803,30.7111762 3.30374527,30.5733085 C3.1287787,30.4575644 2.99723449,30.2017942 3.00004417,29.9921598 C3.02149993,28.4955804 3.15023446,19.4812998 3.19365682,18.2866264 C3.1964665,18.2032582 3.29327282,18.2118918 3.3239239,18.2984976 C3.5001676,18.7981668 3.84652479,19.782936 4.09403224,20.487653 C4.27793871,21.010525 4.3704028,21.5506642 4.36325088,22.0638234 C4.32238278,24.9741536 4.28125925,27.8844839 4.24064657,30.7948142 C4.23783689,30.9885304 4.0976082,31.0727079 3.93669004,30.9747706" id="Fill-54" fill="#171F29"></path>
                <path d="M7.81572997,2.01377235 C7.46927049,1.66071598 6.25760892,2.20819286 5.29774577,3.00869816 C5.16792489,3.70861199 5.15440188,4.43529386 5.22120554,5.16930171 C5.56360812,5.10984849 5.94820248,4.9478314 6.31170095,4.66747139 C7.56879983,3.69790477 8.15083012,2.35133143 7.81572997,2.01377235" id="Fill-56" fill="#B0DDEC"></path>
                <path d="M22.3978063,3.94441631 C22.9765191,4.83295279 22.4186771,5.28437533 21.6183734,5.14409486 C21.6820163,4.41323363 21.6691332,3.68966698 21.5454545,2.99275362 C21.8786138,3.28369531 22.1803381,3.60802375 22.3978063,3.94441631 Z" id="Fill-57" fill="url(#linearGradient-6)"></path>
                <path d="M4.94326083,3.94441631 C5.52197365,4.83295279 4.9641316,5.28437533 4.16382794,5.14409486 C4.22747089,4.41323363 4.2145877,3.68966698 4.09090909,2.99275362 C4.42406834,3.28369531 4.72579261,3.60802375 4.94326083,3.94441631 Z" id="Fill-57" fill="url(#linearGradient-6)" transform="translate(4.636364, 4.081028) scale(-1, 1) translate(-4.636364, -4.081028) "></path>
                <g id="Group-61" transform="translate(8.454545, 0.272069)">
                    <mask id="mask-8" fill="white">
                        <use xlink:href="#path-7"></use>
                    </mask>
                    <g id="Clip-59"></g>
                    <g id="Fill-58" mask="url(#mask-8)">
                        <use fill="black" fill-opacity="1" filter="url(#filter-10)" xlink:href="#path-9"></use>
                        <use fill="#F8EB8E" fill-rule="evenodd" xlink:href="#path-9"></use>
                    </g>
                </g>
                <path d="M24.2727284,14.6749929 C24.2713182,14.6649642 25.6090423,13.9094651 26.6322898,15.0457781 C27.632974,16.1107755 26.4475525,17.3649263 24.803249,15.9943306 C24.628101,15.5608658 24.4509788,15.1209937 24.2727284,14.6749929" id="Fill-62" fill="url(#radialGradient-11)"></path>
                <path d="M2.72727161,14.6749459 C2.72868176,14.6649169 1.39073522,13.9094027 0.367533272,15.046017 C-0.63282431,16.1107572 0.55254443,17.364933 2.19649265,15.9943099 C2.37163279,15.5608364 2.54874713,15.1209556 2.72727161,14.6749459" id="Fill-63" fill="#7F679F"></path>
                <g id="Group-67" transform="translate(6.000000, 1.360343)">
                    <mask id="mask-13" fill="white">
                        <use xlink:href="#path-12"></use>
                    </mask>
                    <g id="Clip-66"></g>
                    <polygon id="Fill-65" fill="#BFC2C2" mask="url(#mask-13)" points="0.0545454545 0.194828722 0.0868636364 0.194828722 0.0868636364 0.183374177 0.0545454545 0.183374177"></polygon>
                </g>
                <path d="M4.09090909,44.6192358 C4.09006801,44.6186911 4.08950729,44.6184187 4.08866622,44.6178739 C4.08950729,44.6184187 4.08978765,44.6186911 4.09090909,44.6192358 M4.07436789,44.6086128 C4.06876071,44.6047994 4.06315352,44.6012584 4.05754634,44.5977174 C2.63304086,43.6522703 1.63804579,41.4347866 1.63636364,39.9570998 C1.63804579,41.4347866 2.63304086,43.6522703 4.05754634,44.5977174 C4.06315352,44.6012584 4.06876071,44.6047994 4.07436789,44.6086128 M1.84298842,20.8863594 C1.84298842,20.8839079 1.84298842,20.8800945 1.84298842,20.8776431 C1.84298842,20.8803669 1.84298842,20.8836355 1.84298842,20.8863594 M1.84410986,20.7626967 C1.86177249,19.1490899 1.87915477,17.5387517 1.89653704,15.937947 C1.87915477,17.5387517 1.86177249,19.1488175 1.84410986,20.7626967 M1.91307824,14.4210368 L1.91307824,14.4210368 C1.91391932,14.3297879 1.91504076,14.2388114 1.91588183,14.1475626 C1.91504076,14.2388114 1.91391932,14.3297879 1.91307824,14.4210368" id="Fill-68" fill="#A4A9AB"></path>
                <g id="Fill-70">
                    <use fill="black" fill-opacity="1" filter="url(#filter-15)" xlink:href="#path-14"></use>
                    <use fill="#FF0000" fill-rule="evenodd" xlink:href="#path-14"></use>
                </g>
                <path d="M2.9188081,36.4571805 C2.84433473,36.4571805 2.74643154,36.339219 2.74447905,36.2357345 C2.72244386,35.1403008 2.72300171,33.4716812 2.73806374,32.0631132 C2.7397373,31.9159294 2.81727886,31.8320158 2.93024409,31.8320158 C2.97626696,31.8320158 3.02786836,31.8459567 3.08281688,31.8749109 C3.29926383,31.9904596 3.51822112,32.1017188 3.73940982,32.2089565 C3.93521621,32.3035939 4.09420431,32.5518493 4.09085719,32.7665929 C4.07523731,33.7743598 4.05961743,34.7821267 4.04427647,35.7896254 C4.04260291,35.8955227 4.00076394,35.9756829 3.92935876,36.0105352 C3.59436805,36.1732685 3.2652348,36.3209885 2.94223793,36.452891 C2.93498584,36.45584 2.92689697,36.4571805 2.9188081,36.4571805" id="Fill-73" fill="#131A23"></path>
                <path d="M5.3077076,20.9492754 C4.94956867,20.9492754 4.59774661,20.5518406 4.47305714,20.0006123 C4.17753759,18.6947167 3.88394057,17.4006928 3.59061819,16.1215087 C3.51838618,15.8058273 3.53321709,15.479893 3.6320898,15.2197931 C3.82077189,14.724686 4.04845377,14.248196 4.30881858,13.8100194 C4.92182939,12.7787936 5.71528289,11.9609899 6.60266547,11.6150894 C8.7861045,10.7713837 11.0744585,10.3456186 13.3636364,10.3386034 L13.3636364,19.985233 C10.6429889,19.98955 7.92371474,20.3068503 5.41811546,20.9363243 C5.38131284,20.9449584 5.34451022,20.9492754 5.3077076,20.9492754" id="Fill-74" fill="#131A23"></path>
                <path d="M13.3636364,42.9868248 C10.4542392,42.9739042 7.54730929,42.0126704 4.99593275,40.1028541 C4.63654147,39.8358297 4.30483785,39.4762082 4.01425451,39.0689422 C3.91638824,38.9313924 3.85169232,38.7774227 3.82811669,38.6369119 C3.81112031,38.5348935 3.81550647,38.4398738 3.84456481,38.3634273 C4.0265906,37.8867134 4.21080947,37.4021935 4.39639902,36.9098673 C4.44190546,36.7890065 4.53785279,36.729249 4.65518267,36.729249 C4.7659333,36.729249 4.89559926,36.7825462 5.02005665,36.8886023 C7.51825096,39.1136258 10.4397101,40.2334053 13.3636364,40.2482101 L13.3636364,42.9868248" id="Fill-75" fill="#131A23"></path>
                <path d="M4.0667017,31.0158103 C4.0268553,31.0158103 3.98266666,31.00259 3.93669004,30.9748005 C3.72366505,30.8450262 3.51242803,30.7112049 3.30374527,30.5733366 C3.1287787,30.4575919 2.99723449,30.2018206 3.00004417,29.9921852 C3.02149993,28.4955988 3.15023446,19.4812765 3.19365682,18.2865975 C3.19493395,18.2474763 3.21715598,18.2285903 3.24320939,18.2285903 C3.27283877,18.2285903 3.30757666,18.2526025 3.3239239,18.2984687 C3.5001676,18.7981402 3.84652479,19.782914 4.09403224,20.4876343 C4.27793871,21.0105087 4.3704028,21.5506504 4.36325088,22.063812 C4.32238278,24.9741557 4.28125925,27.8844995 4.24064657,30.7948432 C4.23860316,30.9332512 4.1663177,31.0158103 4.0667017,31.0158103" id="Fill-76" fill="#131A23"></path>
                <g id="Group-82" transform="translate(4.909091, 0.272069)">
                    <mask id="mask-17" fill="white">
                        <use xlink:href="#path-16"></use>
                    </mask>
                    <g id="Clip-80"></g>
                    <g id="Fill-79" mask="url(#mask-17)">
                        <use fill="black" fill-opacity="1" filter="url(#filter-19)" xlink:href="#path-18"></use>
                        <use fill="#F8EB8E" fill-rule="evenodd" xlink:href="#path-18"></use>
                    </g>
                </g>
                <path d="M0.836241939,16.5961792 C0.28091942,16.5961792 -0.0546995735,16.2137071 0.00734763531,15.7380579 C0.00762966808,15.736942 0.00762966808,15.7361051 0.00791170085,15.7349892 C0.00791170085,15.7349892 0.00791170085,15.7347103 0.00791170085,15.7344313 C0.0363970103,15.5232487 0.143287429,15.2942117 0.343530694,15.0721492 C0.343530694,15.0721492 0.343530694,15.0718702 0.343812727,15.0718702 C0.34409476,15.0715912 0.344376792,15.0713122 0.344658825,15.0710333 C0.351991677,15.0626641 0.359606562,15.0542949 0.367503479,15.0462047 C0.804936301,14.5593966 1.29905771,14.4196311 1.72182483,14.4196311 C1.8876601,14.4196311 2.04249608,14.441112 2.17871791,14.4717991 C2.17871791,14.4712411 2.17871791,14.4706832 2.17871791,14.4704042 C2.50813218,14.5437741 2.72783571,14.6707069 2.72727164,14.6746125 C2.5487449,15.1212484 2.37162832,15.5617469 2.19648598,15.9958291 C2.18492263,16.0053142 2.17364132,16.0147993 2.16207798,16.0240054 C2.16207798,16.0231684 2.16207798,16.0226105 2.16207798,16.0214946 C1.65893152,16.431864 1.20034624,16.5961792 0.836241939,16.5961792" id="Fill-83" fill="url(#radialGradient-11)"></path>
            </g>
        </g>
    </g>
</svg>